<svg width="245" height="240" viewBox="0 0 245 240" fill="none" xmlns="http://www.w3.org/2000/svg">
<path d="M123.297 52.5874C119.89 72.2939 125.341 95.3982 144.42 123.259C144.42 123.259 108.987 166.07 115.12 212.958M143.738 123.259C134.128 117.539 114.911 108.233 95.3596 103.763M95.3596 103.763C86.263 101.683 77.0937 100.651 68.7855 101.514C72.8738 94.7186 80.1804 84.4799 78 78.5C81.6341 87.7007 90.4536 101.757 95.3596 103.763ZM85 174C85.1421 166.38 93.685 159.34 97.4039 153.159C89.0956 154.022 64.2545 143.686 55.1578 141.607M85 174C84.9859 174.757 85.3029 174.96 85.5 175.5C85.4248 174.844 85.1022 174.649 85 174ZM85 174C81.3955 151.135 59.9285 143.558 55.1578 141.607M19.0442 133.452C27.9023 133.452 38.1231 134.64 55.1578 141.607M54.4763 206.163C46.9811 183.964 28.9924 138.345 17 133.452C32.4448 105.138 42.2114 99.4754 66.0599 38.3171C102.174 54.626 172.084 58.4314 214.603 54.626C212.331 65.7251 217.5 103.763 217.5 103.763C217.5 103.763 174.402 108.309 163.5 123.259C173.721 128.695 199.113 131.957 234 123.259C228.095 139.342 217.464 173.817 226.186 202.085C214.83 197.782 176.581 194.203 114.438 214.317C110.577 210.013 93.1792 202.357 54.4763 206.163ZM158.42 181.5C164.779 173.799 171.045 155.698 170.5 147C176.178 156.74 181.823 162.695 190 166.5C177.962 164.461 166.051 176.607 158.42 181.5ZM165 101.263C167.075 93.651 161.727 77.2458 158.5 71.153C165.766 76.3335 179.366 81.4067 186.5 81.5C177.159 83.9314 168.907 95.2633 165 101.263Z" stroke="#F2F2F2" stroke-width="13"/>
</svg>
