<svg width="240" height="240" viewBox="0 0 240 240" fill="none" xmlns="http://www.w3.org/2000/svg">
<rect width="240" height="240" fill="#1F1F1F"/>
<path d="M23 126.405C33.771 130.798 49.9274 171.752 56.6593 191.68C91.4202 188.263 107.046 195.136 110.514 199C166.327 180.943 200.68 184.156 210.88 188.019C203.047 162.642 211.696 127.422 217 112.985C185.666 120.793 159.473 112.985 150.293 108.104C160.085 94.6834 200.476 94.6834 200.476 94.6834C200.476 94.6834 198.436 65.6049 200.476 55.6409C162.288 59.0571 99.4984 55.6409 67.0631 41C45.6435 95.9035 36.8717 100.987 23 126.405Z" fill="#4A51EC"/>
<path d="M78.0789 72.722C80.0372 78.0903 73.183 91.6332 69.511 97.7336C76.973 96.9588 85.2084 97.8856 93.3785 99.7525C88.9722 97.9514 81.3428 80.9817 78.0789 72.722Z" fill="#1F1F1F"/>
<path d="M95.2146 144.097C91.8745 149.646 82.8632 165.391 82.7355 172.232C82.8273 172.814 82.9073 173.4 82.9748 173.988C82.7978 173.503 82.7228 172.911 82.7355 172.232C79.4981 151.705 61.5561 135.477 57.2714 133.726C65.4415 135.593 87.7526 144.871 95.2146 144.097Z" fill="#1F1F1F"/>
<path d="M156.413 136.166C156.903 143.975 145.601 159.754 139.89 166.668C146.744 162.276 170.081 164.838 180.893 166.668C173.549 163.252 161.513 144.91 156.413 136.166Z" fill="#1F1F1F"/>
<path d="M144.296 66.1363C147.194 71.6061 144.192 86.6404 142.328 93.4738C145.837 88.0878 163.493 82.3759 171.883 80.1931C165.476 80.1094 150.822 70.787 144.296 66.1363Z" fill="#1F1F1F"/>
<path d="M118.47 53.8108C115.41 71.5019 120.306 92.2432 137.442 117.255C137.442 117.255 105.618 155.687 111.126 197.78M136.83 117.255C128.198 112.12 110.939 103.765 93.3785 99.7525M93.3785 99.7525C85.2084 97.8856 76.973 96.9588 69.511 97.7336C73.183 91.6332 80.0372 78.0903 78.0789 72.722C81.3428 80.9817 88.9722 97.9514 93.3785 99.7525ZM82.7355 172.232C82.8632 165.391 91.8745 149.646 95.2146 144.097C87.7526 144.871 65.4415 135.593 57.2714 133.726M82.7355 172.232C82.7228 172.911 82.7978 173.503 82.9748 173.988C82.9073 173.4 82.8273 172.814 82.7355 172.232ZM82.7355 172.232C79.4981 151.705 61.5561 135.477 57.2714 133.726M24.836 126.405C32.7919 126.405 41.9717 127.472 57.2714 133.726M56.6593 191.68C49.9274 171.752 33.771 130.798 23 126.405C36.8717 100.987 45.6435 95.9035 67.0631 41C99.4984 55.6409 162.288 59.0571 200.476 55.6409C198.436 65.6049 200.476 94.6834 200.476 94.6834C200.476 94.6834 160.085 94.6834 150.293 108.104C159.473 112.985 185.666 120.793 217 112.985C211.696 127.422 203.047 162.642 210.88 188.019C200.68 184.156 166.327 180.943 110.514 199C107.046 195.136 91.4202 188.263 56.6593 191.68ZM139.89 166.668C145.601 159.754 156.903 143.975 156.413 136.166C161.513 144.91 173.549 163.252 180.893 166.668C170.081 164.838 146.744 162.276 139.89 166.668ZM142.328 93.4738C144.192 86.6404 147.194 71.6061 144.296 66.1363C150.822 70.787 165.476 80.1094 171.883 80.1931C163.493 82.3759 145.837 88.0878 142.328 93.4738Z" stroke="#F2F2F2" stroke-width="8"/>
</svg>
